<svg width="261" height="48" viewBox="0 0 261 48" fill="none" xmlns="http://www.w3.org/2000/svg">
<g clip-path="url(#clip0_67_18)">
<path d="M35.3868 24.0784L31.2214 24.2698L33.0549 23.584C32.0057 23.5684 30.6427 23.7043 28.8917 24.0323L25.664 26.0971L27.0328 24.4406C26.0292 24.7189 24.9354 25.1374 23.8492 25.6746L22.6592 27.971L22.9669 26.1325C21.8764 26.737 20.8171 27.4455 19.8901 28.2382C18.9168 29.0679 18.0892 29.9932 17.5472 30.9834L16.6521 30.0116C16.5303 30.9346 16.637 31.7882 16.9489 32.6231L15.7668 31.9235C15.8413 32.8859 16.176 33.5777 16.8651 34.2385C16.1104 35.3943 15.5803 36.6647 15.0356 37.9276L15.7058 38.2141C18.4678 30.3338 25.4299 26.567 31.1488 25.5346L31.2513 26.2578C26.1303 27.2105 21.6942 29.8356 18.598 34.4162C19.2844 34.586 19.9766 34.6649 20.6378 34.6559L21.3827 32.3885L21.3708 34.6161C21.8214 34.5642 22.2452 34.4737 22.6345 34.3427L22.2476 32.5011L23.1737 34.1234C23.5362 33.9538 23.8529 33.741 24.1152 33.4869C25.7053 31.9623 27.3459 30.462 30.0852 29.5366L28.4987 28.5021L31.141 29.2251C31.6271 29.1095 32.1479 28.95 32.5549 28.7791L30.7045 28.1712L33.7023 28.1884C33.9758 28.0214 34.2368 27.8393 34.4788 27.6527C35.337 26.9783 35.9908 26.2185 36.0751 25.4042C36.1211 24.9977 35.9753 24.5699 35.642 24.2695C35.559 24.1972 35.467 24.1288 35.3868 24.0784Z" fill="url(#paint0_linear_67_18)"/>
</g>
<path d="M17 7L4 40.5H11L20 15.5L23 24.5L29.5 22L23.5 7H17Z" fill="white"/>
<path d="M27.5 41L25 34.3333L31 31L35 41H27.5Z" fill="white"/>
<path d="M46.448 41L31.76 7.4H38.528L51.632 37.784H47.744L60.992 7.4H67.232L52.592 41H46.448ZM68.4245 41V7.4H74.6645V41H68.4245ZM76.6006 41L91.7206 7.4H97.8646L113.033 41H106.505L93.4966 10.712H95.9926L83.0326 41H76.6006ZM83.5606 33.224L85.2406 28.328H103.385L105.065 33.224H83.5606ZM114.906 41V7.4H120.042L141.114 33.272H138.57V7.4H144.762V41H139.626L118.554 15.128H121.098V41H114.906Z" fill="white"/>
<path d="M243.5 41C253.7 41 257 30.8945 257 26C256.955 23.2657 256.362 20.5682 255.256 18.0671C254.15 15.5661 252.553 13.3124 250.561 11.4395C248.723 9.44673 246.202 8.21881 243.5 8C240.798 8.21881 238.277 9.44673 236.44 11.4395C234.447 13.3124 232.85 15.5661 231.744 18.0671C230.638 20.5682 230.045 23.2657 230 26C230 30.8945 233.3 41 243.5 41ZM243.484 11C247.166 11.054 254 17.5895 254 26C254 29.915 251.434 38 243.5 38C235.566 38 233 29.915 233 26C233 17.5715 239.839 11.0795 243.484 11ZM237.218 31.232C237.116 31.0598 237.05 30.869 237.023 30.6708C236.996 30.4725 237.008 30.2709 237.06 30.0777C237.113 29.8845 237.203 29.7037 237.326 29.5459C237.449 29.3881 237.602 29.2565 237.777 29.1588C237.951 29.0611 238.144 28.9994 238.342 28.9772C238.541 28.955 238.743 28.9728 238.934 29.0296C239.126 29.0863 239.305 29.1809 239.46 29.3077C239.614 29.4346 239.742 29.591 239.836 29.768C240.171 30.4501 240.694 31.0224 241.343 31.4178C241.992 31.8131 242.74 32.0151 243.5 32C243.898 32 244.279 32.158 244.561 32.4393C244.842 32.7206 245 33.1022 245 33.5C245 33.8978 244.842 34.2794 244.561 34.5607C244.279 34.842 243.898 35 243.5 35C242.207 35.0156 240.934 34.6715 239.825 34.0062C238.716 33.3408 237.813 32.3804 237.218 31.232Z" fill="url(#paint1_linear_67_18)"/>
<path d="M166.512 41V7.4H180.336C183.312 7.4 185.856 7.88 187.968 8.84C190.112 9.8 191.76 11.176 192.912 12.968C194.064 14.76 194.64 16.888 194.64 19.352C194.64 21.816 194.064 23.944 192.912 25.736C191.76 27.528 190.112 28.904 187.968 29.864C185.856 30.824 183.312 31.304 180.336 31.304H169.968L172.752 28.376V41H166.512ZM172.752 29.048L169.968 26.024H180.048C182.8 26.024 184.864 25.448 186.24 24.296C187.648 23.112 188.352 21.464 188.352 19.352C188.352 17.208 187.648 15.56 186.24 14.408C184.864 13.256 182.8 12.68 180.048 12.68H169.968L172.752 9.608V29.048ZM198.471 41V7.4H212.295C215.271 7.4 217.815 7.88 219.927 8.84C222.071 9.8 223.719 11.176 224.871 12.968C226.023 14.76 226.599 16.888 226.599 19.352C226.599 21.816 226.023 23.944 224.871 25.736C223.719 27.496 222.071 28.856 219.927 29.816C217.815 30.744 215.271 31.208 212.295 31.208H201.927L204.711 28.376V41H198.471ZM220.455 41L211.959 28.808H218.631L227.175 41H220.455ZM204.711 29.048L201.927 26.072H212.007C214.759 26.072 216.823 25.48 218.199 24.296C219.607 23.112 220.311 21.464 220.311 19.352C220.311 17.208 219.607 15.56 218.199 14.408C216.823 13.256 214.759 12.68 212.007 12.68H201.927L204.711 9.608V29.048Z" fill="white"/>
<defs>
<linearGradient id="paint0_linear_67_18" x1="29.6562" y1="14.6788" x2="23.2894" y2="40.0478" gradientUnits="userSpaceOnUse">
<stop stop-color="#FFED4F"/>
<stop offset="1" stop-color="#ED9209"/>
</linearGradient>
<linearGradient id="paint1_linear_67_18" x1="244" y1="-6" x2="243.5" y2="41" gradientUnits="userSpaceOnUse">
<stop stop-color="#FFE500"/>
<stop offset="1" stop-color="#FFC671"/>
</linearGradient>
<clipPath id="clip0_67_18">
<rect width="20" height="20" fill="white" transform="translate(17.6981 19) rotate(13.5859)"/>
</clipPath>
</defs>
</svg>
